<?xml version="1.0" encoding="UTF-8" standalone="no"?>
<!-- Created with Inkscape (http://www.inkscape.org/) -->
<svg xmlns:inkscape="http://www.inkscape.org/namespaces/inkscape" xmlns:rdf="http://www.w3.org/1999/02/22-rdf-syntax-ns#" xmlns="http://www.w3.org/2000/svg" xmlns:sodipodi="http://sodipodi.sourceforge.net/DTD/sodipodi-0.dtd" xmlns:cc="http://creativecommons.org/ns#" xmlns:xlink="http://www.w3.org/1999/xlink" xmlns:dc="http://purl.org/dc/elements/1.1/" xmlns:svg="http://www.w3.org/2000/svg" xmlns:ns1="http://sozi.baierouge.fr" id="svg2474" sodipodi:docname="view-refresh.svg" viewBox="0 0 48 48" version="1.1" inkscape:version="0.47 r22583">
  <sodipodi:namedview id="namedview31" bordercolor="#666666" inkscape:pageshadow="2" guidetolerance="10" pagecolor="#ffffff" gridtolerance="10" inkscape:window-maximized="1" inkscape:zoom="9.8333333" objecttolerance="10" borderopacity="1" inkscape:current-layer="svg2474" inkscape:cx="17.058689" inkscape:cy="28.777087" inkscape:window-y="24" inkscape:window-x="0" inkscape:window-width="1280" showgrid="false" inkscape:pageopacity="0" inkscape:window-height="973"/>
  <defs id="defs2476">
    <linearGradient id="linearGradient4873">
      <stop id="stop4875" style="stop-color:white" offset="0"/>
      <stop id="stop4877" style="stop-color:white;stop-opacity:0" offset="1"/>
    </linearGradient>
    <linearGradient id="linearGradient2861" y2="22.6" gradientUnits="userSpaceOnUse" x2="15.373" gradientTransform="matrix(.95437 0 0 .95437 .49330 2.8946)" y1="5.0472" x1="15.373">
      <stop id="stop3535" style="stop-color:#93b9dd" offset="0"/>
      <stop id="stop3545" style="stop-color:#6396cd" offset="1"/>
    </linearGradient>
    <radialGradient id="radialGradient2864" gradientUnits="userSpaceOnUse" cy="4.625" cx="62.625" gradientTransform="matrix(2.1499 0 0 .87466 -110.64 34.661)" r="10.625">
      <stop id="stop8840" style="stop-color:black" offset="0"/>
      <stop id="stop8842" style="stop-color:black;stop-opacity:0" offset="1"/>
    </radialGradient>
    <linearGradient id="linearGradient2850" y2="19.948" xlink:href="#linearGradient4873" gradientUnits="userSpaceOnUse" x2="10.512" gradientTransform="matrix(.95437 0 0 .95437 .49330 2.8946)" y1="10.677" x1="35.233" inkscape:collect="always"/>
    <linearGradient id="linearGradient3684" y2="19.948" xlink:href="#linearGradient4873" gradientUnits="userSpaceOnUse" x2="10.512" gradientTransform="matrix(-.95437 0 0 -.95437 46.382 44.602)" y1="10.677" x1="35.233" inkscape:collect="always"/>
    <linearGradient id="linearGradient3687" y2="22.6" gradientUnits="userSpaceOnUse" x2="15.373" gradientTransform="matrix(-.95437 0 0 -.95437 46.382 44.602)" y1="5.0472" x1="15.373" inkscape:collect="always">
      <stop id="stop3691" style="stop-color:#d7e866" offset="0"/>
      <stop id="stop3693" style="stop-color:#8cab2a" offset="1"/>
    </linearGradient>
  </defs>
  <path id="path8836" style="opacity:.56044;fill-rule:evenodd;fill:url(#radialGradient2864)" d="m46.842 38.707a22.842 9.2933 0 0 1 -45.685 0 22.842 9.2933 0 1 1 45.685 0z"/>
  <g id="g3669">
    <path id="path3372" style="stroke-linejoin:round;stroke:#387ab8;fill:url(#linearGradient2861)" d="m23.531 4.5c-9.848 0.3989-17.691 8.015-18.906 17.656h10.625c1.058-3.926 4.851-6.983 9.031-6.937 2.364 0.026 4.646 0.799 6.344 2.437l-4.406 4.063h16.031v-15.813l-4.219 4.219c-3.708-3.644-7.996-5.5648-13.469-5.625-0.347-0.0038-0.687-0.0139-1.031 0z"/>
    <path id="path3370" sodipodi:nodetypes="csccccccc" style="opacity:.4;stroke:url(#linearGradient2850);stroke-width:1.193;fill:none" d="m14.219 21.75c1.2893-4.2881 5.5889-7.7538 10.125-7.6875 2.6731 0.03908 5.955 1.1919 7.9688 3.4688l-3.2188 3.0625 12.062 0.03125v-12.062l-3.156 3.2182c-3.542-3.9506-8.053-5.9756-13.594-6.031-9.609-0.0962-17.172 6.815-18.562 16"/>
  </g>
  <path id="path3675" style="stroke-linejoin:round;stroke:#42770c;fill:url(#linearGradient3687)" d="m23.344 42.997c9.848-0.399 17.691-8.015 18.906-17.657h-10.625c-1.0577 3.9266-4.8512 6.9835-9.0312 6.9375-2.3639-0.02602-4.646-0.79971-6.3438-2.4375l4.4062-4.0625h-16.031v15.812l4.2188-4.2188c3.7082 3.644 7.9959 5.5648 13.469 5.625 0.34792 0.0038 0.68793 0.01391 1.0312 0z"/>
  <path id="path3677" sodipodi:nodetypes="csccccccc" style="opacity:.4;stroke:url(#linearGradient3684);stroke-width:1.193;fill:none" d="m32.656 25.747c-1.2893 4.2881-5.5889 7.7538-10.125 7.6875-2.6731-0.03908-5.955-1.1919-7.9688-3.4688l3.2188-3.0625-12.062-0.03125v12.062l3.1562-3.2188c3.542 3.9509 8.0533 5.9758 13.594 6.0312 9.6095 0.09616 17.172-6.8151 18.562-16"/>
  <metadata>
    <rdf:RDF>
      <cc:Work>
        <dc:format>image/svg+xml</dc:format>
        <dc:type rdf:resource="http://purl.org/dc/dcmitype/StillImage"/>
        <cc:license rdf:resource="http://creativecommons.org/licenses/publicdomain/"/>
        <dc:publisher>
          <cc:Agent rdf:about="http://openclipart.org/">
            <dc:title>Openclipart</dc:title>
          </cc:Agent>
        </dc:publisher>
        <dc:title>synchronize </dc:title>
        <dc:date>2010-07-21T07:37:00</dc:date>
        <dc:description>a synchronize icon for the gnome desktop</dc:description>
        <dc:source>https://openclipart.org/detail/74173/synchronize--by-aguest</dc:source>
        <dc:creator>
          <cc:Agent>
            <dc:title>aguest</dc:title>
          </cc:Agent>
        </dc:creator>
        <dc:subject>
          <rdf:Bag>
            <rdf:li>gnome</rdf:li>
            <rdf:li>human</rdf:li>
            <rdf:li>icon</rdf:li>
            <rdf:li>symbol</rdf:li>
            <rdf:li>sync</rdf:li>
            <rdf:li>synchronize</rdf:li>
            <rdf:li>ubuntu</rdf:li>
          </rdf:Bag>
        </dc:subject>
      </cc:Work>
      <cc:License rdf:about="http://creativecommons.org/licenses/publicdomain/">
        <cc:permits rdf:resource="http://creativecommons.org/ns#Reproduction"/>
        <cc:permits rdf:resource="http://creativecommons.org/ns#Distribution"/>
        <cc:permits rdf:resource="http://creativecommons.org/ns#DerivativeWorks"/>
      </cc:License>
    </rdf:RDF>
  </metadata>
</svg>